<svg width="22" height="22" viewBox="0 0 22 22" fill="none" xmlns="http://www.w3.org/2000/svg">
<path d="M10.9939 1.24295C7.29892 1.24295 4.32718 3.49523 4.32718 7.19021C4.32718 12.0803 2.7442 11.1883 2.7442 16.0633C2.7442 16.0633 6.23691 17.1938 10.9939 17.1938C15.7509 17.1938 19.2559 16.0633 19.2559 16.0633C19.2559 11.1883 17.6771 12.0803 17.6771 7.19021C17.6771 3.49523 14.6889 1.24295 10.9939 1.24295Z" stroke="white" stroke-width="1.5" stroke-linecap="round" stroke-linejoin="round"/>
<path d="M13.7558 20.1826C13.4765 20.3532 13.0748 20.4948 12.591 20.5932C12.1073 20.6917 11.5586 20.7435 11.0001 20.7435C10.4415 20.7435 9.8928 20.6917 9.4091 20.5932C8.92534 20.4948 8.52366 20.3532 8.24438 20.1826" stroke="white" stroke-width="1.5" stroke-linecap="round" stroke-linejoin="round"/>
<path d="M2.74417 16.0633L1.25427 15.5412" stroke="white" stroke-width="1.5" stroke-linecap="round" stroke-linejoin="round"/>
<path d="M20.7458 15.5412L19.2559 16.0633" stroke="white" stroke-width="1.5" stroke-linecap="round" stroke-linejoin="round"/>
</svg>
